<svg xmlns="http://www.w3.org/2000/svg" xmlns:xlink="http://www.w3.org/1999/xlink" width="500" zoomAndPan="magnify" viewBox="0 0 375 74.999997" height="100" preserveAspectRatio="xMidYMid meet" version="1.0"><defs><g/><clipPath id="c259a532bb"><rect x="0" width="288" y="0" height="58"/></clipPath><clipPath id="cac4ade6dd"><path d="M 365 21 L 374.703125 21 L 374.703125 32 L 365 32 Z M 365 21 " clip-rule="nonzero"/></clipPath></defs><g transform="matrix(1, 0, 0, 1, 0, 17)"><g clip-path="url(#c259a532bb)"><g fill="#1f80ff" fill-opacity="1"><g transform="translate(-2.647669, 56.395711)"><g><path d="M 46.03125 -37.703125 L 46.03125 0 L 36.84375 0 L 36.84375 -22.609375 L 28.421875 0 L 21 0 L 12.515625 -22.671875 L 12.515625 0 L 3.328125 0 L 3.328125 -37.703125 L 14.1875 -37.703125 L 24.765625 -11.609375 L 35.234375 -37.703125 Z M 46.03125 -37.703125 "/></g></g></g><g fill="#1f80ff" fill-opacity="1"><g transform="translate(46.664821, 56.395711)"><g><path d="M 16.96875 0.4375 C 14.03125 0.4375 11.390625 -0.1875 9.046875 -1.4375 C 6.703125 -2.695312 4.859375 -4.488281 3.515625 -6.8125 C 2.171875 -9.144531 1.5 -11.867188 1.5 -14.984375 C 1.5 -18.066406 2.179688 -20.78125 3.546875 -23.125 C 4.910156 -25.46875 6.769531 -27.265625 9.125 -28.515625 C 11.488281 -29.773438 14.140625 -30.40625 17.078125 -30.40625 C 20.015625 -30.40625 22.664062 -29.773438 25.03125 -28.515625 C 27.394531 -27.265625 29.253906 -25.46875 30.609375 -23.125 C 31.972656 -20.78125 32.65625 -18.066406 32.65625 -14.984375 C 32.65625 -11.910156 31.96875 -9.195312 30.59375 -6.84375 C 29.21875 -4.5 27.335938 -2.695312 24.953125 -1.4375 C 22.566406 -0.1875 19.90625 0.4375 16.96875 0.4375 Z M 16.96875 -7.515625 C 18.726562 -7.515625 20.222656 -8.160156 21.453125 -9.453125 C 22.691406 -10.742188 23.3125 -12.585938 23.3125 -14.984375 C 23.3125 -17.390625 22.710938 -19.234375 21.515625 -20.515625 C 20.316406 -21.804688 18.835938 -22.453125 17.078125 -22.453125 C 15.285156 -22.453125 13.796875 -21.816406 12.609375 -20.546875 C 11.429688 -19.273438 10.84375 -17.421875 10.84375 -14.984375 C 10.84375 -12.585938 11.425781 -10.742188 12.59375 -9.453125 C 13.757812 -8.160156 15.21875 -7.515625 16.96875 -7.515625 Z M 16.96875 -7.515625 "/></g></g></g><g fill="#1f80ff" fill-opacity="1"><g transform="translate(80.882751, 56.395711)"><g><path d="M 1.5 -14.984375 C 1.5 -18.097656 2.132812 -20.816406 3.40625 -23.140625 C 4.675781 -25.472656 6.445312 -27.265625 8.71875 -28.515625 C 11 -29.773438 13.609375 -30.40625 16.546875 -30.40625 C 20.304688 -30.40625 23.445312 -29.421875 25.96875 -27.453125 C 28.5 -25.484375 30.15625 -22.707031 30.9375 -19.125 L 21.171875 -19.125 C 20.335938 -21.414062 18.742188 -22.5625 16.390625 -22.5625 C 14.703125 -22.5625 13.351562 -21.90625 12.34375 -20.59375 C 11.34375 -19.289062 10.84375 -17.421875 10.84375 -14.984375 C 10.84375 -12.546875 11.34375 -10.671875 12.34375 -9.359375 C 13.351562 -8.054688 14.703125 -7.40625 16.390625 -7.40625 C 18.742188 -7.40625 20.335938 -8.550781 21.171875 -10.84375 L 30.9375 -10.84375 C 30.15625 -7.34375 28.488281 -4.585938 25.9375 -2.578125 C 23.394531 -0.566406 20.265625 0.4375 16.546875 0.4375 C 13.609375 0.4375 11 -0.1875 8.71875 -1.4375 C 6.445312 -2.695312 4.675781 -4.488281 3.40625 -6.8125 C 2.132812 -9.144531 1.5 -11.867188 1.5 -14.984375 Z M 1.5 -14.984375 "/></g></g></g><g fill="#1f80ff" fill-opacity="1"><g transform="translate(113.381726, 56.395711)"><g><path d="M 21.65625 0 L 12.515625 -12.5625 L 12.515625 0 L 3.328125 0 L 3.328125 -39.75 L 12.515625 -39.75 L 12.515625 -17.78125 L 21.59375 -29.96875 L 32.921875 -29.96875 L 20.46875 -14.9375 L 33.03125 0 Z M 21.65625 0 "/></g></g></g><g fill="#1f80ff" fill-opacity="1"><g transform="translate(146.579024, 56.395711)"><g><path d="M 46.03125 -37.703125 L 46.03125 0 L 36.84375 0 L 36.84375 -22.609375 L 28.421875 0 L 21 0 L 12.515625 -22.671875 L 12.515625 0 L 3.328125 0 L 3.328125 -37.703125 L 14.1875 -37.703125 L 24.765625 -11.609375 L 35.234375 -37.703125 Z M 46.03125 -37.703125 "/></g></g></g><g fill="#1f80ff" fill-opacity="1"><g transform="translate(195.891526, 56.395711)"><g><path d="M 1.5 -15.046875 C 1.5 -18.117188 2.082031 -20.816406 3.25 -23.140625 C 4.414062 -25.472656 6 -27.265625 8 -28.515625 C 10.007812 -29.773438 12.25 -30.40625 14.71875 -30.40625 C 16.832031 -30.40625 18.6875 -29.972656 20.28125 -29.109375 C 21.875 -28.253906 23.097656 -27.128906 23.953125 -25.734375 L 23.953125 -29.96875 L 33.140625 -29.96875 L 33.140625 0 L 23.953125 0 L 23.953125 -4.25 C 23.054688 -2.851562 21.8125 -1.722656 20.21875 -0.859375 C 18.625 0.00390625 16.773438 0.4375 14.671875 0.4375 C 12.234375 0.4375 10.007812 -0.195312 8 -1.46875 C 6 -2.75 4.414062 -4.5625 3.25 -6.90625 C 2.082031 -9.25 1.5 -11.960938 1.5 -15.046875 Z M 23.953125 -14.984375 C 23.953125 -17.273438 23.316406 -19.082031 22.046875 -20.40625 C 20.773438 -21.738281 19.226562 -22.40625 17.40625 -22.40625 C 15.582031 -22.40625 14.03125 -21.75 12.75 -20.4375 C 11.476562 -19.132812 10.84375 -17.335938 10.84375 -15.046875 C 10.84375 -12.753906 11.476562 -10.9375 12.75 -9.59375 C 14.03125 -8.25 15.582031 -7.578125 17.40625 -7.578125 C 19.226562 -7.578125 20.773438 -8.238281 22.046875 -9.5625 C 23.316406 -10.882812 23.953125 -12.691406 23.953125 -14.984375 Z M 23.953125 -14.984375 "/></g></g></g><g fill="#1f80ff" fill-opacity="1"><g transform="translate(232.365572, 56.395711)"><g><path d="M 20.03125 -7.796875 L 20.03125 0 L 15.359375 0 C 12.035156 0 9.441406 -0.8125 7.578125 -2.4375 C 5.710938 -4.070312 4.78125 -6.734375 4.78125 -10.421875 L 4.78125 -22.34375 L 1.125 -22.34375 L 1.125 -29.96875 L 4.78125 -29.96875 L 4.78125 -37.28125 L 13.96875 -37.28125 L 13.96875 -29.96875 L 19.984375 -29.96875 L 19.984375 -22.34375 L 13.96875 -22.34375 L 13.96875 -10.3125 C 13.96875 -9.414062 14.179688 -8.769531 14.609375 -8.375 C 15.035156 -7.988281 15.753906 -7.796875 16.765625 -7.796875 Z M 20.03125 -7.796875 "/></g></g></g><g fill="#1f80ff" fill-opacity="1"><g transform="translate(254.1748, 56.395711)"><g><path d="M 31.59375 -15.46875 C 31.59375 -14.613281 31.535156 -13.71875 31.421875 -12.78125 L 10.640625 -12.78125 C 10.773438 -10.914062 11.367188 -9.488281 12.421875 -8.5 C 13.484375 -7.519531 14.785156 -7.03125 16.328125 -7.03125 C 18.617188 -7.03125 20.210938 -8 21.109375 -9.9375 L 30.890625 -9.9375 C 30.390625 -7.96875 29.484375 -6.191406 28.171875 -4.609375 C 26.867188 -3.035156 25.234375 -1.800781 23.265625 -0.90625 C 21.296875 -0.0078125 19.09375 0.4375 16.65625 0.4375 C 13.71875 0.4375 11.101562 -0.1875 8.8125 -1.4375 C 6.519531 -2.695312 4.726562 -4.488281 3.4375 -6.8125 C 2.144531 -9.144531 1.5 -11.867188 1.5 -14.984375 C 1.5 -18.097656 2.132812 -20.816406 3.40625 -23.140625 C 4.675781 -25.472656 6.457031 -27.265625 8.75 -28.515625 C 11.039062 -29.773438 13.675781 -30.40625 16.65625 -30.40625 C 19.550781 -30.40625 22.125 -29.796875 24.375 -28.578125 C 26.632812 -27.359375 28.398438 -25.617188 29.671875 -23.359375 C 30.953125 -21.109375 31.59375 -18.476562 31.59375 -15.46875 Z M 22.1875 -17.890625 C 22.1875 -19.460938 21.648438 -20.710938 20.578125 -21.640625 C 19.503906 -22.578125 18.160156 -23.046875 16.546875 -23.046875 C 15.003906 -23.046875 13.703125 -22.597656 12.640625 -21.703125 C 11.585938 -20.804688 10.9375 -19.535156 10.6875 -17.890625 Z M 22.1875 -17.890625 "/></g></g></g></g></g><path fill="#2584ff" d="M 287.15625 74.148438 L 296.695312 74.15625 L 309.253906 41.683594 L 320.507812 74.144531 L 330.375 74.15625 C 330.0625 73.144531 325.96875 63.402344 325.449219 62.144531 L 315.589844 38.21875 C 315.175781 37.21875 314.738281 36.183594 314.359375 35.242188 C 313.941406 34.203125 313.511719 33.332031 313.09375 32.304688 C 312.390625 30.574219 311.671875 28.125 308.8125 28.089844 C 307.601562 28.074219 306.492188 28.636719 305.871094 29.359375 C 305.230469 30.105469 304.867188 31.179688 304.480469 32.164062 L 297.027344 50.09375 C 294.558594 56.199219 292.035156 62.058594 289.613281 68.066406 C 289.226562 69.027344 288.785156 70.078125 288.394531 71.03125 C 288.175781 71.570312 287.988281 72.011719 287.765625 72.566406 C 287.574219 73.046875 287.273438 73.640625 287.15625 74.148438 Z M 287.15625 74.148438 " fill-opacity="1" fill-rule="evenodd"/><path fill="#2584ff" d="M 333.8125 32.652344 L 333.714844 55.53125 C 333.710938 58.082031 334.152344 59.476562 335.476562 61.042969 C 338.042969 64.085938 342.960938 64.105469 345.699219 61.140625 C 347.996094 58.648438 347.480469 55.683594 347.476562 52.492188 L 347.480469 32.652344 C 347.480469 30.40625 346.714844 28.789062 345.535156 27.570312 C 345.066406 27.085938 344.199219 26.457031 343.480469 26.144531 C 340.757812 24.960938 337.640625 25.609375 335.683594 27.617188 C 334.40625 28.925781 333.8125 30.367188 333.8125 32.652344 Z M 333.8125 32.652344 " fill-opacity="1" fill-rule="evenodd"/><path fill="#2584ff" d="M 337.285156 19.160156 L 337.398438 19.25 C 338.667969 20.054688 342.4375 20.53125 346.480469 24.476562 C 350.34375 28.246094 351.179688 33.15625 351.800781 33.660156 C 351.953125 33.589844 351.921875 33.800781 352.171875 33.113281 C 352.265625 32.851562 352.34375 32.667969 352.425781 32.476562 C 353.871094 29.113281 354.300781 27.449219 357.164062 24.523438 C 359.15625 22.488281 361.207031 21.316406 363.808594 20.265625 C 364.644531 19.925781 365.730469 19.5625 366.410156 19.214844 C 366.25 18.808594 366.070312 18.871094 365.210938 18.523438 C 363.847656 17.964844 362.75 17.621094 361.398438 16.882812 C 359.867188 16.042969 358.417969 14.988281 357.253906 13.796875 C 352.984375 9.421875 352.792969 5.683594 351.890625 4.585938 C 351.535156 4.710938 351.535156 5.085938 351.253906 5.75 C 350.675781 7.117188 350.328125 8.121094 349.601562 9.539062 C 347.523438 13.597656 344 16.34375 339.8125 17.992188 L 337.890625 18.746094 C 337.550781 18.875 337.425781 18.847656 337.285156 19.160156 Z M 337.285156 19.160156 " fill-opacity="1" fill-rule="evenodd"/><path fill="#2584ff" d="M 352.816406 54.074219 L 350.410156 54.035156 C 350.222656 55.960938 350.550781 57.070312 349.96875 58.96875 C 347.601562 66.714844 337.898438 68.136719 333.214844 62.589844 C 332.367188 61.585938 331.730469 60.441406 331.292969 59.054688 C 330.722656 57.222656 330.9375 56.070312 330.824219 54.074219 L 328.433594 54.039062 C 327.765625 60.773438 331.632812 66.042969 336.632812 67.675781 C 337.296875 67.894531 338 67.972656 338.519531 68.453125 C 339 68.902344 339.292969 69.738281 338.976562 70.507812 C 337.910156 73.089844 333.089844 70.304688 333.300781 73.046875 C 333.371094 73.984375 334.085938 74.109375 334.996094 74.109375 L 345.992188 74.105469 C 346.910156 74.105469 347.660156 74.101562 347.875 73.304688 C 348.117188 72.398438 347.523438 71.757812 346.710938 71.707031 C 344.859375 71.585938 343.089844 72.195312 342.316406 70.648438 C 341.925781 69.871094 342.15625 69.035156 342.632812 68.527344 C 343.152344 67.972656 343.679688 67.984375 344.550781 67.691406 C 349.78125 65.953125 353.414062 60.664062 352.816406 54.074219 Z M 352.816406 54.074219 " fill-opacity="1" fill-rule="evenodd"/><path fill="#2584ff" d="M 361.550781 6.199219 C 361.992188 6.902344 365.332031 6.828125 367.167969 11.292969 C 367.308594 11.632812 367.445312 12.164062 367.707031 12.367188 C 368.179688 12.046875 368.644531 8.332031 372.734375 6.769531 C 373.097656 6.632812 373.644531 6.523438 373.824219 6.199219 C 373.414062 5.710938 369.765625 5.234375 368.21875 1.132812 C 368.089844 0.792969 368.003906 0.296875 367.707031 0.0898438 L 366.707031 2.15625 C 364.957031 5.433594 361.863281 5.730469 361.550781 6.199219 Z M 361.550781 6.199219 " fill-opacity="1" fill-rule="evenodd"/><g clip-path="url(#cac4ade6dd)"><path fill="#2584ff" d="M 365.074219 26.664062 C 365.167969 26.757812 365.082031 26.699219 365.242188 26.796875 C 366.253906 27.425781 368.074219 27.480469 369.386719 30.621094 C 369.722656 31.421875 369.546875 31.300781 369.851562 31.371094 C 370.558594 30.035156 370.683594 28.660156 372.878906 27.449219 L 374.210938 26.84375 C 374.449219 26.695312 374.296875 26.820312 374.414062 26.664062 C 374.21875 26.425781 373.984375 26.386719 373.660156 26.253906 C 373.359375 26.128906 373.109375 26.03125 372.855469 25.890625 C 370.308594 24.457031 370.269531 22.347656 369.761719 21.945312 C 369.460938 22.285156 369.257812 23.105469 369.03125 23.523438 C 368.335938 24.820312 367.300781 25.671875 365.929688 26.238281 C 365.773438 26.300781 365.675781 26.339844 365.503906 26.410156 Z M 365.074219 26.664062 " fill-opacity="1" fill-rule="evenodd"/></g><path fill="#2584ff" d="M 287.171875 73.871094 L 296.675781 73.878906 L 300.167969 64.660156 L 316.84375 64.648438 L 320.390625 73.867188 L 330.21875 73.878906 C 329.90625 72.871094 323.878906 58.398438 323.363281 57.144531 C 316.753906 57.464844 307.925781 57.308594 294.308594 57.222656 C 292.582031 61.503906 289.128906 69.257812 287.171875 73.871094 Z M 287.171875 73.871094 " fill-opacity="1" fill-rule="evenodd"/></svg>